<!-- Generated by IcoMoon.io -->
<svg version="1.1" xmlns="http://www.w3.org/2000/svg" width="32" height="32" viewBox="0 0 32 32">
<title>W</title>
<path fill="#fff" d="M10.921 27.008l-7.489-17.885c-0.532-1.231-1.063-2.084-1.595-2.56s-1.144-0.756-1.837-0.842v-0.648c0.092 0 0.324-0.011 0.693-0.032 0.347-0.022 0.601-0.032 0.763-0.032 0.809 0 1.641 0.086 2.496 0.259 0.855 0.151 1.664 0.518 2.427 1.102s1.41 1.501 1.941 2.754l4.68 11.178 3.12-8.295-1.213-2.884c-0.532-1.231-1.109-2.084-1.733-2.56-0.601-0.475-1.248-0.756-1.941-0.842v-0.648c0.092 0 0.3-0.011 0.624-0.032s0.566-0.032 0.728-0.032c0.809 0 1.641 0.086 2.496 0.259s1.664 0.551 2.427 1.134c0.763 0.562 1.41 1.469 1.942 2.722l4.958 11.794 5.928-15.585h1.664l-8.217 21.676h-1.387l-5.339-12.701-4.75 12.701h-1.387z"></path>
</svg>
